<?xml version="1.0" encoding="UTF-8" standalone="no"?>
<!DOCTYPE svg PUBLIC "-//W3C//DTD SVG 1.1//EN"
 "http://www.w3.org/Graphics/SVG/1.1/DTD/svg11.dtd">
<!-- Generated by graphviz version 2.47.3 (20210619.1520)
 -->
<!-- Title: dependencies Pages: 1 -->
<svg width="1020pt" height="247pt"
 viewBox="0.00 0.00 1020.00 246.80" xmlns="http://www.w3.org/2000/svg" xmlns:xlink="http://www.w3.org/1999/xlink">
<g id="graph0" class="graph" transform="scale(1 1) rotate(0) translate(4 242.8)">
<title>dependencies</title>
<polygon fill="white" stroke="transparent" points="-4,4 -4,-242.8 1016,-242.8 1016,4 -4,4"/>
<text text-anchor="middle" x="506" y="-8.2" font-family="sans-serif" font-size="14.00">dependencies</text>
<g id="clust1" class="cluster">
<title>cluster_SimulationDiagramModule</title>
<polygon fill="none" stroke="black" stroke-dasharray="1,5" points="8,-32.8 8,-230.8 1004,-230.8 1004,-32.8 8,-32.8"/>
</g>
<g id="clust9" class="cluster">
<title>cluster_SimulationDiagramModule_exports</title>
<polygon fill="none" stroke="black" points="383,-170.8 383,-222.8 595,-222.8 595,-170.8 383,-170.8"/>
</g>
<g id="clust2" class="cluster">
<title>cluster_SimulationDiagramModule_declarations</title>
<polygon fill="none" stroke="black" points="152,-40.8 152,-92.8 996,-92.8 996,-40.8 152,-40.8"/>
</g>
<g id="clust8" class="cluster">
<title>cluster_SimulationDiagramModule_imports</title>
<polygon fill="none" stroke="black" points="16,-40.8 16,-92.8 144,-92.8 144,-40.8 16,-40.8"/>
</g>
<!-- SimulationDiagramComponent -->
<g id="node1" class="node">
<title>SimulationDiagramComponent</title>
<polygon fill="#ffffb3" stroke="black" points="987.76,-84.8 796.24,-84.8 796.24,-48.8 987.76,-48.8 987.76,-84.8"/>
<text text-anchor="middle" x="892" y="-62.6" font-family="Times,serif" font-size="14.00">SimulationDiagramComponent</text>
</g>
<!-- SimulationDiagramModule -->
<g id="node6" class="node">
<title>SimulationDiagramModule</title>
<polygon fill="#8dd3c7" stroke="black" points="573.98,-149.8 570.98,-153.8 549.98,-153.8 546.98,-149.8 404.02,-149.8 404.02,-113.8 573.98,-113.8 573.98,-149.8"/>
<text text-anchor="middle" x="489" y="-127.6" font-family="Times,serif" font-size="14.00">SimulationDiagramModule</text>
</g>
<!-- SimulationDiagramComponent&#45;&gt;SimulationDiagramModule -->
<g id="edge1" class="edge">
<title>SimulationDiagramComponent&#45;&gt;SimulationDiagramModule</title>
<path fill="none" stroke="black" d="M892,-85.08C892,-106.12 892,-137.8 892,-137.8 892,-137.8 584.47,-137.8 584.47,-137.8"/>
<polygon fill="black" stroke="black" points="584.47,-134.3 574.47,-137.8 584.47,-141.3 584.47,-134.3"/>
</g>
<!-- DiagramComponent -->
<g id="node2" class="node">
<title>DiagramComponent</title>
<polygon fill="#ffffb3" stroke="black" points="778.31,-84.8 647.69,-84.8 647.69,-48.8 778.31,-48.8 778.31,-84.8"/>
<text text-anchor="middle" x="713" y="-62.6" font-family="Times,serif" font-size="14.00">DiagramComponent</text>
</g>
<!-- DiagramComponent&#45;&gt;SimulationDiagramModule -->
<g id="edge2" class="edge">
<title>DiagramComponent&#45;&gt;SimulationDiagramModule</title>
<path fill="none" stroke="black" d="M713,-84.82C713,-102.17 713,-125.8 713,-125.8 713,-125.8 584,-125.8 584,-125.8"/>
<polygon fill="black" stroke="black" points="584,-122.3 574,-125.8 584,-129.3 584,-122.3"/>
</g>
<!-- LegendComponent -->
<g id="node3" class="node">
<title>LegendComponent</title>
<polygon fill="#ffffb3" stroke="black" points="629.81,-84.8 506.19,-84.8 506.19,-48.8 629.81,-48.8 629.81,-84.8"/>
<text text-anchor="middle" x="568" y="-62.6" font-family="Times,serif" font-size="14.00">LegendComponent</text>
</g>
<!-- LegendComponent&#45;&gt;SimulationDiagramModule -->
<g id="edge3" class="edge">
<title>LegendComponent&#45;&gt;SimulationDiagramModule</title>
<path fill="none" stroke="black" d="M540.17,-84.91C540.17,-84.91 540.17,-103.79 540.17,-103.79"/>
<polygon fill="black" stroke="black" points="536.67,-103.79 540.17,-113.79 543.67,-103.79 536.67,-103.79"/>
</g>
<!-- LegendEntryComponent -->
<g id="node4" class="node">
<title>LegendEntryComponent</title>
<polygon fill="#ffffb3" stroke="black" points="488.42,-84.8 333.58,-84.8 333.58,-48.8 488.42,-48.8 488.42,-84.8"/>
<text text-anchor="middle" x="411" y="-62.6" font-family="Times,serif" font-size="14.00">LegendEntryComponent</text>
</g>
<!-- LegendEntryComponent&#45;&gt;SimulationDiagramModule -->
<g id="edge4" class="edge">
<title>LegendEntryComponent&#45;&gt;SimulationDiagramModule</title>
<path fill="none" stroke="black" d="M446.11,-84.91C446.11,-84.91 446.11,-103.79 446.11,-103.79"/>
<polygon fill="black" stroke="black" points="442.61,-103.79 446.11,-113.79 449.61,-103.79 442.61,-103.79"/>
</g>
<!-- DiagramLineComponent -->
<g id="node5" class="node">
<title>DiagramLineComponent</title>
<polygon fill="#ffffb3" stroke="black" points="315.97,-84.8 160.03,-84.8 160.03,-48.8 315.97,-48.8 315.97,-84.8"/>
<text text-anchor="middle" x="238" y="-62.6" font-family="Times,serif" font-size="14.00">DiagramLineComponent</text>
</g>
<!-- DiagramLineComponent&#45;&gt;SimulationDiagramModule -->
<g id="edge5" class="edge">
<title>DiagramLineComponent&#45;&gt;SimulationDiagramModule</title>
<path fill="none" stroke="black" d="M238,-84.82C238,-102.17 238,-125.8 238,-125.8 238,-125.8 393.67,-125.8 393.67,-125.8"/>
<polygon fill="black" stroke="black" points="393.67,-129.3 403.67,-125.8 393.67,-122.3 393.67,-129.3"/>
</g>
<!-- SimulationDiagramComponent  -->
<g id="node8" class="node">
<title>SimulationDiagramComponent </title>
<polygon fill="#fb8072" stroke="black" points="586.76,-214.8 391.24,-214.8 391.24,-178.8 586.76,-178.8 586.76,-214.8"/>
<text text-anchor="middle" x="489" y="-192.6" font-family="Times,serif" font-size="14.00">SimulationDiagramComponent </text>
</g>
<!-- SimulationDiagramModule&#45;&gt;SimulationDiagramComponent  -->
<g id="edge7" class="edge">
<title>SimulationDiagramModule&#45;&gt;SimulationDiagramComponent </title>
<path fill="none" stroke="black" stroke-dasharray="5,2" d="M489,-149.91C489,-149.91 489,-168.79 489,-168.79"/>
<polygon fill="black" stroke="black" points="485.5,-168.79 489,-178.79 492.5,-168.79 485.5,-168.79"/>
</g>
<!-- CommonModule -->
<g id="node7" class="node">
<title>CommonModule</title>
<polygon fill="#8dd3c7" stroke="black" points="135.67,-84.8 132.67,-88.8 111.67,-88.8 108.67,-84.8 24.33,-84.8 24.33,-48.8 135.67,-48.8 135.67,-84.8"/>
<text text-anchor="middle" x="80" y="-62.6" font-family="Times,serif" font-size="14.00">CommonModule</text>
</g>
<!-- CommonModule&#45;&gt;SimulationDiagramModule -->
<g id="edge6" class="edge">
<title>CommonModule&#45;&gt;SimulationDiagramModule</title>
<path fill="none" stroke="black" d="M80,-85.08C80,-106.12 80,-137.8 80,-137.8 80,-137.8 393.76,-137.8 393.76,-137.8"/>
<polygon fill="black" stroke="black" points="393.76,-141.3 403.76,-137.8 393.76,-134.3 393.76,-141.3"/>
</g>
</g>
</svg>
