<?xml version="1.0" encoding="UTF-8" standalone="no"?>
<!DOCTYPE svg PUBLIC "-//W3C//DTD SVG 1.1//EN"
 "http://www.w3.org/Graphics/SVG/1.1/DTD/svg11.dtd">
<!-- Generated by graphviz version 2.47.3 (20210619.1520)
 -->
<!-- Title: dependencies Pages: 1 -->
<svg width="1939pt" height="247pt"
 viewBox="0.00 0.00 1939.00 246.80" xmlns="http://www.w3.org/2000/svg" xmlns:xlink="http://www.w3.org/1999/xlink">
<g id="graph0" class="graph" transform="scale(1 1) rotate(0) translate(4 242.8)">
<title>dependencies</title>
<polygon fill="white" stroke="transparent" points="-4,4 -4,-242.8 1935,-242.8 1935,4 -4,4"/>
<text text-anchor="middle" x="965.5" y="-8.2" font-family="sans-serif" font-size="14.00">dependencies</text>
<g id="clust1" class="cluster">
<title>cluster_GraphEditorModule</title>
<polygon fill="none" stroke="black" stroke-dasharray="1,5" points="8,-32.8 8,-230.8 1923,-230.8 1923,-32.8 8,-32.8"/>
</g>
<g id="clust2" class="cluster">
<title>cluster_GraphEditorModule_declarations</title>
<polygon fill="none" stroke="black" points="152,-40.8 152,-92.8 1915,-92.8 1915,-40.8 152,-40.8"/>
</g>
<g id="clust13" class="cluster">
<title>cluster_GraphEditorModule_exports</title>
<polygon fill="none" stroke="black" points="985,-170.8 985,-222.8 1155,-222.8 1155,-170.8 985,-170.8"/>
</g>
<g id="clust12" class="cluster">
<title>cluster_GraphEditorModule_imports</title>
<polygon fill="none" stroke="black" points="16,-40.8 16,-92.8 144,-92.8 144,-40.8 16,-40.8"/>
</g>
<!-- GraphEditorComponent -->
<g id="node1" class="node">
<title>GraphEditorComponent</title>
<polygon fill="#ffffb3" stroke="black" points="1906.81,-84.8 1755.19,-84.8 1755.19,-48.8 1906.81,-48.8 1906.81,-84.8"/>
<text text-anchor="middle" x="1831" y="-62.6" font-family="Times,serif" font-size="14.00">GraphEditorComponent</text>
</g>
<!-- GraphEditorModule -->
<g id="node10" class="node">
<title>GraphEditorModule</title>
<polygon fill="#8dd3c7" stroke="black" points="1134.53,-149.8 1131.53,-153.8 1110.53,-153.8 1107.53,-149.8 1005.47,-149.8 1005.47,-113.8 1134.53,-113.8 1134.53,-149.8"/>
<text text-anchor="middle" x="1070" y="-127.6" font-family="Times,serif" font-size="14.00">GraphEditorModule</text>
</g>
<!-- GraphEditorComponent&#45;&gt;GraphEditorModule -->
<g id="edge1" class="edge">
<title>GraphEditorComponent&#45;&gt;GraphEditorModule</title>
<path fill="none" stroke="black" d="M1831,-84.81C1831,-107.29 1831,-142.8 1831,-142.8 1831,-142.8 1144.55,-142.8 1144.55,-142.8"/>
<polygon fill="black" stroke="black" points="1144.55,-139.3 1134.55,-142.8 1144.55,-146.3 1144.55,-139.3"/>
</g>
<!-- SocialNodeComponent -->
<g id="node2" class="node">
<title>SocialNodeComponent</title>
<polygon fill="#ffffb3" stroke="black" points="1737.15,-84.8 1590.85,-84.8 1590.85,-48.8 1737.15,-48.8 1737.15,-84.8"/>
<text text-anchor="middle" x="1664" y="-62.6" font-family="Times,serif" font-size="14.00">SocialNodeComponent</text>
</g>
<!-- SocialNodeComponent&#45;&gt;GraphEditorModule -->
<g id="edge2" class="edge">
<title>SocialNodeComponent&#45;&gt;GraphEditorModule</title>
<path fill="none" stroke="black" d="M1664,-84.93C1664,-105.37 1664,-135.8 1664,-135.8 1664,-135.8 1144.7,-135.8 1144.7,-135.8"/>
<polygon fill="black" stroke="black" points="1144.7,-132.3 1134.7,-135.8 1144.7,-139.3 1144.7,-132.3"/>
</g>
<!-- PersonNodeComponent -->
<g id="node3" class="node">
<title>PersonNodeComponent</title>
<polygon fill="#ffffb3" stroke="black" points="1572.76,-84.8 1423.24,-84.8 1423.24,-48.8 1572.76,-48.8 1572.76,-84.8"/>
<text text-anchor="middle" x="1498" y="-62.6" font-family="Times,serif" font-size="14.00">PersonNodeComponent</text>
</g>
<!-- PersonNodeComponent&#45;&gt;GraphEditorModule -->
<g id="edge3" class="edge">
<title>PersonNodeComponent&#45;&gt;GraphEditorModule</title>
<path fill="none" stroke="black" d="M1498,-85.07C1498,-103.36 1498,-128.8 1498,-128.8 1498,-128.8 1144.54,-128.8 1144.54,-128.8"/>
<polygon fill="black" stroke="black" points="1144.54,-125.3 1134.54,-128.8 1144.54,-132.3 1144.54,-125.3"/>
</g>
<!-- GroupNodeComponent -->
<g id="node4" class="node">
<title>GroupNodeComponent</title>
<polygon fill="#ffffb3" stroke="black" points="1404.92,-84.8 1257.08,-84.8 1257.08,-48.8 1404.92,-48.8 1404.92,-84.8"/>
<text text-anchor="middle" x="1331" y="-62.6" font-family="Times,serif" font-size="14.00">GroupNodeComponent</text>
</g>
<!-- GroupNodeComponent&#45;&gt;GraphEditorModule -->
<g id="edge4" class="edge">
<title>GroupNodeComponent&#45;&gt;GraphEditorModule</title>
<path fill="none" stroke="black" d="M1331,-84.81C1331,-100.85 1331,-121.8 1331,-121.8 1331,-121.8 1144.85,-121.8 1144.85,-121.8"/>
<polygon fill="black" stroke="black" points="1144.85,-118.3 1134.85,-121.8 1144.85,-125.3 1144.85,-118.3"/>
</g>
<!-- ConnectionComponent -->
<g id="node5" class="node">
<title>ConnectionComponent</title>
<polygon fill="#ffffb3" stroke="black" points="1238.88,-84.8 1093.12,-84.8 1093.12,-48.8 1238.88,-48.8 1238.88,-84.8"/>
<text text-anchor="middle" x="1166" y="-62.6" font-family="Times,serif" font-size="14.00">ConnectionComponent</text>
</g>
<!-- ConnectionComponent&#45;&gt;GraphEditorModule -->
<g id="edge5" class="edge">
<title>ConnectionComponent&#45;&gt;GraphEditorModule</title>
<path fill="none" stroke="black" d="M1113.91,-84.91C1113.91,-84.91 1113.91,-103.79 1113.91,-103.79"/>
<polygon fill="black" stroke="black" points="1110.41,-103.79 1113.91,-113.79 1117.41,-103.79 1110.41,-103.79"/>
</g>
<!-- GraphEditorControlsComponent -->
<g id="node6" class="node">
<title>GraphEditorControlsComponent</title>
<polygon fill="#ffffb3" stroke="black" points="1074.53,-84.8 875.47,-84.8 875.47,-48.8 1074.53,-48.8 1074.53,-84.8"/>
<text text-anchor="middle" x="975" y="-62.6" font-family="Times,serif" font-size="14.00">GraphEditorControlsComponent</text>
</g>
<!-- GraphEditorControlsComponent&#45;&gt;GraphEditorModule -->
<g id="edge6" class="edge">
<title>GraphEditorControlsComponent&#45;&gt;GraphEditorModule</title>
<path fill="none" stroke="black" d="M1040,-84.91C1040,-84.91 1040,-103.79 1040,-103.79"/>
<polygon fill="black" stroke="black" points="1036.5,-103.79 1040,-113.79 1043.5,-103.79 1036.5,-103.79"/>
</g>
<!-- GraphControlToolComponent -->
<g id="node7" class="node">
<title>GraphControlToolComponent</title>
<polygon fill="#ffffb3" stroke="black" points="856.54,-84.8 671.46,-84.8 671.46,-48.8 856.54,-48.8 856.54,-84.8"/>
<text text-anchor="middle" x="764" y="-62.6" font-family="Times,serif" font-size="14.00">GraphControlToolComponent</text>
</g>
<!-- GraphControlToolComponent&#45;&gt;GraphEditorModule -->
<g id="edge7" class="edge">
<title>GraphControlToolComponent&#45;&gt;GraphEditorModule</title>
<path fill="none" stroke="black" d="M764,-84.81C764,-100.85 764,-121.8 764,-121.8 764,-121.8 995.11,-121.8 995.11,-121.8"/>
<polygon fill="black" stroke="black" points="995.11,-125.3 1005.11,-121.8 995.11,-118.3 995.11,-125.3"/>
</g>
<!-- GraphControlZoomComponent -->
<g id="node8" class="node">
<title>GraphControlZoomComponent</title>
<polygon fill="#ffffb3" stroke="black" points="653.04,-84.8 460.96,-84.8 460.96,-48.8 653.04,-48.8 653.04,-84.8"/>
<text text-anchor="middle" x="557" y="-62.6" font-family="Times,serif" font-size="14.00">GraphControlZoomComponent</text>
</g>
<!-- GraphControlZoomComponent&#45;&gt;GraphEditorModule -->
<g id="edge8" class="edge">
<title>GraphControlZoomComponent&#45;&gt;GraphEditorModule</title>
<path fill="none" stroke="black" d="M557,-85.07C557,-103.36 557,-128.8 557,-128.8 557,-128.8 995.29,-128.8 995.29,-128.8"/>
<polygon fill="black" stroke="black" points="995.29,-132.3 1005.29,-128.8 995.29,-125.3 995.29,-132.3"/>
</g>
<!-- GraphControlSimulationNavigationComponent -->
<g id="node9" class="node">
<title>GraphControlSimulationNavigationComponent</title>
<polygon fill="#ffffb3" stroke="black" points="442.25,-84.8 159.75,-84.8 159.75,-48.8 442.25,-48.8 442.25,-84.8"/>
<text text-anchor="middle" x="301" y="-62.6" font-family="Times,serif" font-size="14.00">GraphControlSimulationNavigationComponent</text>
</g>
<!-- GraphControlSimulationNavigationComponent&#45;&gt;GraphEditorModule -->
<g id="edge9" class="edge">
<title>GraphControlSimulationNavigationComponent&#45;&gt;GraphEditorModule</title>
<path fill="none" stroke="black" d="M301,-84.93C301,-105.37 301,-135.8 301,-135.8 301,-135.8 995.43,-135.8 995.43,-135.8"/>
<polygon fill="black" stroke="black" points="995.43,-139.3 1005.43,-135.8 995.43,-132.3 995.43,-139.3"/>
</g>
<!-- GraphEditorComponent  -->
<g id="node12" class="node">
<title>GraphEditorComponent </title>
<polygon fill="#fb8072" stroke="black" points="1147.31,-214.8 992.69,-214.8 992.69,-178.8 1147.31,-178.8 1147.31,-214.8"/>
<text text-anchor="middle" x="1070" y="-192.6" font-family="Times,serif" font-size="14.00">GraphEditorComponent </text>
</g>
<!-- GraphEditorModule&#45;&gt;GraphEditorComponent  -->
<g id="edge11" class="edge">
<title>GraphEditorModule&#45;&gt;GraphEditorComponent </title>
<path fill="none" stroke="black" stroke-dasharray="5,2" d="M1070,-149.91C1070,-149.91 1070,-168.79 1070,-168.79"/>
<polygon fill="black" stroke="black" points="1066.5,-168.79 1070,-178.79 1073.5,-168.79 1066.5,-168.79"/>
</g>
<!-- CommonModule -->
<g id="node11" class="node">
<title>CommonModule</title>
<polygon fill="#8dd3c7" stroke="black" points="135.67,-84.8 132.67,-88.8 111.67,-88.8 108.67,-84.8 24.33,-84.8 24.33,-48.8 135.67,-48.8 135.67,-84.8"/>
<text text-anchor="middle" x="80" y="-62.6" font-family="Times,serif" font-size="14.00">CommonModule</text>
</g>
<!-- CommonModule&#45;&gt;GraphEditorModule -->
<g id="edge10" class="edge">
<title>CommonModule&#45;&gt;GraphEditorModule</title>
<path fill="none" stroke="black" d="M80,-84.81C80,-107.29 80,-142.8 80,-142.8 80,-142.8 995.43,-142.8 995.43,-142.8"/>
<polygon fill="black" stroke="black" points="995.43,-146.3 1005.43,-142.8 995.43,-139.3 995.43,-146.3"/>
</g>
</g>
</svg>
