<?xml version="1.0" encoding="UTF-8" standalone="no"?>
<!DOCTYPE svg PUBLIC "-//W3C//DTD SVG 1.1//EN"
 "http://www.w3.org/Graphics/SVG/1.1/DTD/svg11.dtd">
<!-- Generated by graphviz version 2.47.3 (20210619.1520)
 -->
<!-- Title: dependencies Pages: 1 -->
<svg width="977pt" height="247pt"
 viewBox="0.00 0.00 977.00 246.80" xmlns="http://www.w3.org/2000/svg" xmlns:xlink="http://www.w3.org/1999/xlink">
<g id="graph0" class="graph" transform="scale(1 1) rotate(0) translate(4 242.8)">
<title>dependencies</title>
<polygon fill="white" stroke="transparent" points="-4,4 -4,-242.8 973,-242.8 973,4 -4,4"/>
<text text-anchor="middle" x="484.5" y="-8.2" font-family="sans-serif" font-size="14.00">dependencies</text>
<g id="clust1" class="cluster">
<title>cluster_MenubarModule</title>
<polygon fill="none" stroke="black" stroke-dasharray="1,5" points="8,-32.8 8,-230.8 961,-230.8 961,-32.8 8,-32.8"/>
</g>
<g id="clust9" class="cluster">
<title>cluster_MenubarModule_providers</title>
<polygon fill="none" stroke="black" points="787,-40.8 787,-92.8 953,-92.8 953,-40.8 787,-40.8"/>
</g>
<g id="clust2" class="cluster">
<title>cluster_MenubarModule_declarations</title>
<polygon fill="none" stroke="black" points="268,-40.8 268,-92.8 779,-92.8 779,-40.8 268,-40.8"/>
</g>
<g id="clust6" class="cluster">
<title>cluster_MenubarModule_imports</title>
<polygon fill="none" stroke="black" points="16,-40.8 16,-92.8 260,-92.8 260,-40.8 16,-40.8"/>
</g>
<g id="clust7" class="cluster">
<title>cluster_MenubarModule_exports</title>
<polygon fill="none" stroke="black" points="372,-170.8 372,-222.8 524,-222.8 524,-170.8 372,-170.8"/>
</g>
<!-- MenubarComponent -->
<g id="node1" class="node">
<title>MenubarComponent</title>
<polygon fill="#ffffb3" stroke="black" points="770.87,-84.8 639.13,-84.8 639.13,-48.8 770.87,-48.8 770.87,-84.8"/>
<text text-anchor="middle" x="705" y="-62.6" font-family="Times,serif" font-size="14.00">MenubarComponent</text>
</g>
<!-- MenubarModule -->
<g id="node4" class="node">
<title>MenubarModule</title>
<polygon fill="#8dd3c7" stroke="black" points="503.08,-149.8 500.08,-153.8 479.08,-153.8 476.08,-149.8 392.92,-149.8 392.92,-113.8 503.08,-113.8 503.08,-149.8"/>
<text text-anchor="middle" x="448" y="-127.6" font-family="Times,serif" font-size="14.00">MenubarModule</text>
</g>
<!-- MenubarComponent&#45;&gt;MenubarModule -->
<g id="edge1" class="edge">
<title>MenubarComponent&#45;&gt;MenubarModule</title>
<path fill="none" stroke="black" d="M705,-84.82C705,-102.17 705,-125.8 705,-125.8 705,-125.8 513.13,-125.8 513.13,-125.8"/>
<polygon fill="black" stroke="black" points="513.13,-122.3 503.13,-125.8 513.13,-129.3 513.13,-122.3"/>
</g>
<!-- MenubarMenuComponent -->
<g id="node2" class="node">
<title>MenubarMenuComponent</title>
<polygon fill="#ffffb3" stroke="black" points="621.03,-84.8 456.97,-84.8 456.97,-48.8 621.03,-48.8 621.03,-84.8"/>
<text text-anchor="middle" x="539" y="-62.6" font-family="Times,serif" font-size="14.00">MenubarMenuComponent</text>
</g>
<!-- MenubarMenuComponent&#45;&gt;MenubarModule -->
<g id="edge2" class="edge">
<title>MenubarMenuComponent&#45;&gt;MenubarModule</title>
<path fill="none" stroke="black" d="M479.89,-84.91C479.89,-84.91 479.89,-103.79 479.89,-103.79"/>
<polygon fill="black" stroke="black" points="476.39,-103.79 479.89,-113.79 483.39,-103.79 476.39,-103.79"/>
</g>
<!-- MenubarEntryComponent -->
<g id="node3" class="node">
<title>MenubarEntryComponent</title>
<polygon fill="#ffffb3" stroke="black" points="438.47,-84.8 275.53,-84.8 275.53,-48.8 438.47,-48.8 438.47,-84.8"/>
<text text-anchor="middle" x="357" y="-62.6" font-family="Times,serif" font-size="14.00">MenubarEntryComponent</text>
</g>
<!-- MenubarEntryComponent&#45;&gt;MenubarModule -->
<g id="edge3" class="edge">
<title>MenubarEntryComponent&#45;&gt;MenubarModule</title>
<path fill="none" stroke="black" d="M415.72,-84.91C415.72,-84.91 415.72,-103.79 415.72,-103.79"/>
<polygon fill="black" stroke="black" points="412.22,-103.79 415.72,-113.79 419.22,-103.79 412.22,-103.79"/>
</g>
<!-- MenubarComponent  -->
<g id="node7" class="node">
<title>MenubarComponent </title>
<polygon fill="#fb8072" stroke="black" points="515.87,-214.8 380.13,-214.8 380.13,-178.8 515.87,-178.8 515.87,-214.8"/>
<text text-anchor="middle" x="448" y="-192.6" font-family="Times,serif" font-size="14.00">MenubarComponent </text>
</g>
<!-- MenubarModule&#45;&gt;MenubarComponent  -->
<g id="edge6" class="edge">
<title>MenubarModule&#45;&gt;MenubarComponent </title>
<path fill="none" stroke="black" stroke-dasharray="5,2" d="M448,-149.91C448,-149.91 448,-168.79 448,-168.79"/>
<polygon fill="black" stroke="black" points="444.5,-168.79 448,-178.79 451.5,-168.79 444.5,-168.79"/>
</g>
<!-- CommonModule -->
<g id="node5" class="node">
<title>CommonModule</title>
<polygon fill="#8dd3c7" stroke="black" points="251.67,-84.8 248.67,-88.8 227.67,-88.8 224.67,-84.8 140.33,-84.8 140.33,-48.8 251.67,-48.8 251.67,-84.8"/>
<text text-anchor="middle" x="196" y="-62.6" font-family="Times,serif" font-size="14.00">CommonModule</text>
</g>
<!-- CommonModule&#45;&gt;MenubarModule -->
<g id="edge4" class="edge">
<title>CommonModule&#45;&gt;MenubarModule</title>
<path fill="none" stroke="black" d="M196,-84.82C196,-102.17 196,-125.8 196,-125.8 196,-125.8 382.7,-125.8 382.7,-125.8"/>
<polygon fill="black" stroke="black" points="382.7,-129.3 392.7,-125.8 382.7,-122.3 382.7,-129.3"/>
</g>
<!-- SharedModule -->
<g id="node6" class="node">
<title>SharedModule</title>
<polygon fill="#8dd3c7" stroke="black" points="122.42,-84.8 119.42,-88.8 98.42,-88.8 95.42,-84.8 23.58,-84.8 23.58,-48.8 122.42,-48.8 122.42,-84.8"/>
<text text-anchor="middle" x="73" y="-62.6" font-family="Times,serif" font-size="14.00">SharedModule</text>
</g>
<!-- SharedModule&#45;&gt;MenubarModule -->
<g id="edge5" class="edge">
<title>SharedModule&#45;&gt;MenubarModule</title>
<path fill="none" stroke="black" d="M73,-85.08C73,-106.12 73,-137.8 73,-137.8 73,-137.8 382.67,-137.8 382.67,-137.8"/>
<polygon fill="black" stroke="black" points="382.67,-141.3 392.67,-137.8 382.67,-134.3 382.67,-141.3"/>
</g>
<!-- MenubarService -->
<g id="node8" class="node">
<title>MenubarService</title>
<ellipse fill="#fdb462" stroke="black" cx="870" cy="-66.8" rx="74.7" ry="18"/>
<text text-anchor="middle" x="870" y="-62.6" font-family="Times,serif" font-size="14.00">MenubarService</text>
</g>
<!-- MenubarService&#45;&gt;MenubarModule -->
<g id="edge7" class="edge">
<title>MenubarService&#45;&gt;MenubarModule</title>
<path fill="none" stroke="black" d="M870,-85.08C870,-106.12 870,-137.8 870,-137.8 870,-137.8 513.17,-137.8 513.17,-137.8"/>
<polygon fill="black" stroke="black" points="513.17,-134.3 503.17,-137.8 513.17,-141.3 513.17,-134.3"/>
</g>
</g>
</svg>
