<?xml version="1.0" encoding="UTF-8" standalone="no"?>
<!DOCTYPE svg PUBLIC "-//W3C//DTD SVG 1.1//EN"
 "http://www.w3.org/Graphics/SVG/1.1/DTD/svg11.dtd">
<!-- Generated by graphviz version 2.47.3 (20210619.1520)
 -->
<!-- Title: dependencies Pages: 1 -->
<svg width="2004pt" height="247pt"
 viewBox="0.00 0.00 2004.00 246.80" xmlns="http://www.w3.org/2000/svg" xmlns:xlink="http://www.w3.org/1999/xlink">
<g id="graph0" class="graph" transform="scale(1 1) rotate(0) translate(4 242.8)">
<title>dependencies</title>
<polygon fill="white" stroke="transparent" points="-4,4 -4,-242.8 2000,-242.8 2000,4 -4,4"/>
<text text-anchor="middle" x="998" y="-8.2" font-family="sans-serif" font-size="14.00">dependencies</text>
<g id="clust1" class="cluster">
<title>cluster_SharedModule</title>
<polygon fill="none" stroke="black" stroke-dasharray="1,5" points="8,-32.8 8,-230.8 1988,-230.8 1988,-32.8 8,-32.8"/>
</g>
<g id="clust16" class="cluster">
<title>cluster_SharedModule_providers</title>
<polygon fill="none" stroke="black" points="1834,-40.8 1834,-92.8 1980,-92.8 1980,-40.8 1834,-40.8"/>
</g>
<g id="clust14" class="cluster">
<title>cluster_SharedModule_exports</title>
<polygon fill="none" stroke="black" points="247,-170.8 247,-222.8 1839,-222.8 1839,-170.8 247,-170.8"/>
</g>
<g id="clust13" class="cluster">
<title>cluster_SharedModule_imports</title>
<polygon fill="none" stroke="black" points="1585,-40.8 1585,-92.8 1826,-92.8 1826,-40.8 1585,-40.8"/>
</g>
<g id="clust2" class="cluster">
<title>cluster_SharedModule_declarations</title>
<polygon fill="none" stroke="black" points="16,-40.8 16,-92.8 1577,-92.8 1577,-40.8 16,-40.8"/>
</g>
<!-- ButtonComponent -->
<g id="node1" class="node">
<title>ButtonComponent</title>
<polygon fill="#ffffb3" stroke="black" points="1568.95,-84.8 1449.05,-84.8 1449.05,-48.8 1568.95,-48.8 1568.95,-84.8"/>
<text text-anchor="middle" x="1509" y="-62.6" font-family="Times,serif" font-size="14.00">ButtonComponent</text>
</g>
<!-- SharedModule -->
<g id="node11" class="node">
<title>SharedModule</title>
<polygon fill="#8dd3c7" stroke="black" points="1105.42,-149.8 1102.42,-153.8 1081.42,-153.8 1078.42,-149.8 1006.58,-149.8 1006.58,-113.8 1105.42,-113.8 1105.42,-149.8"/>
<text text-anchor="middle" x="1056" y="-127.6" font-family="Times,serif" font-size="14.00">SharedModule</text>
</g>
<!-- ButtonComponent&#45;&gt;SharedModule -->
<g id="edge1" class="edge">
<title>ButtonComponent&#45;&gt;SharedModule</title>
<path fill="none" stroke="black" d="M1483.21,-84.84C1483.21,-101.53 1483.21,-123.8 1483.21,-123.8 1483.21,-123.8 1115.42,-123.8 1115.42,-123.8"/>
<polygon fill="black" stroke="black" points="1115.42,-120.3 1105.42,-123.8 1115.42,-127.3 1115.42,-120.3"/>
</g>
<!-- ButtonSmallComponent -->
<g id="node2" class="node">
<title>ButtonSmallComponent</title>
<polygon fill="#ffffb3" stroke="black" points="1431.12,-84.8 1278.88,-84.8 1278.88,-48.8 1431.12,-48.8 1431.12,-84.8"/>
<text text-anchor="middle" x="1355" y="-62.6" font-family="Times,serif" font-size="14.00">ButtonSmallComponent</text>
</g>
<!-- ButtonSmallComponent&#45;&gt;SharedModule -->
<g id="edge2" class="edge">
<title>ButtonSmallComponent&#45;&gt;SharedModule</title>
<path fill="none" stroke="black" d="M1329.92,-85.08C1329.92,-100.75 1329.92,-120.8 1329.92,-120.8 1329.92,-120.8 1115.29,-120.8 1115.29,-120.8"/>
<polygon fill="black" stroke="black" points="1115.29,-117.3 1105.29,-120.8 1115.29,-124.3 1115.29,-117.3"/>
</g>
<!-- SliderComponent -->
<g id="node3" class="node">
<title>SliderComponent</title>
<polygon fill="#ffffb3" stroke="black" points="1261.27,-84.8 1146.73,-84.8 1146.73,-48.8 1261.27,-48.8 1261.27,-84.8"/>
<text text-anchor="middle" x="1204" y="-62.6" font-family="Times,serif" font-size="14.00">SliderComponent</text>
</g>
<!-- SliderComponent&#45;&gt;SharedModule -->
<g id="edge3" class="edge">
<title>SliderComponent&#45;&gt;SharedModule</title>
<path fill="none" stroke="black" d="M1181.07,-84.92C1181.07,-99.58 1181.07,-117.8 1181.07,-117.8 1181.07,-117.8 1115.43,-117.8 1115.43,-117.8"/>
<polygon fill="black" stroke="black" points="1115.43,-114.3 1105.43,-117.8 1115.43,-121.3 1115.43,-114.3"/>
</g>
<!-- DropDownComponent -->
<g id="node4" class="node">
<title>DropDownComponent</title>
<polygon fill="#ffffb3" stroke="black" points="1128.31,-84.8 983.69,-84.8 983.69,-48.8 1128.31,-48.8 1128.31,-84.8"/>
<text text-anchor="middle" x="1056" y="-62.6" font-family="Times,serif" font-size="14.00">DropDownComponent</text>
</g>
<!-- DropDownComponent&#45;&gt;SharedModule -->
<g id="edge4" class="edge">
<title>DropDownComponent&#45;&gt;SharedModule</title>
<path fill="none" stroke="black" d="M1056,-84.91C1056,-84.91 1056,-103.79 1056,-103.79"/>
<polygon fill="black" stroke="black" points="1052.5,-103.79 1056,-113.79 1059.5,-103.79 1052.5,-103.79"/>
</g>
<!-- InputSmallComponent -->
<g id="node5" class="node">
<title>InputSmallComponent</title>
<polygon fill="#ffffb3" stroke="black" points="965.55,-84.8 822.45,-84.8 822.45,-48.8 965.55,-48.8 965.55,-84.8"/>
<text text-anchor="middle" x="894" y="-62.6" font-family="Times,serif" font-size="14.00">InputSmallComponent</text>
</g>
<!-- InputSmallComponent&#45;&gt;SharedModule -->
<g id="edge5" class="edge">
<title>InputSmallComponent&#45;&gt;SharedModule</title>
<path fill="none" stroke="black" d="M927.43,-84.92C927.43,-99.58 927.43,-117.8 927.43,-117.8 927.43,-117.8 996.66,-117.8 996.66,-117.8"/>
<polygon fill="black" stroke="black" points="996.66,-121.3 1006.66,-117.8 996.66,-114.3 996.66,-121.3"/>
</g>
<!-- InputMediumComponent -->
<g id="node6" class="node">
<title>InputMediumComponent</title>
<polygon fill="#ffffb3" stroke="black" points="804.32,-84.8 645.68,-84.8 645.68,-48.8 804.32,-48.8 804.32,-84.8"/>
<text text-anchor="middle" x="725" y="-62.6" font-family="Times,serif" font-size="14.00">InputMediumComponent</text>
</g>
<!-- InputMediumComponent&#45;&gt;SharedModule -->
<g id="edge6" class="edge">
<title>InputMediumComponent&#45;&gt;SharedModule</title>
<path fill="none" stroke="black" d="M764.32,-85.08C764.32,-100.75 764.32,-120.8 764.32,-120.8 764.32,-120.8 996.52,-120.8 996.52,-120.8"/>
<polygon fill="black" stroke="black" points="996.52,-124.3 1006.52,-120.8 996.52,-117.3 996.52,-124.3"/>
</g>
<!-- InputLargeComponent -->
<g id="node7" class="node">
<title>InputLargeComponent</title>
<polygon fill="#ffffb3" stroke="black" points="627.53,-84.8 484.47,-84.8 484.47,-48.8 627.53,-48.8 627.53,-84.8"/>
<text text-anchor="middle" x="556" y="-62.6" font-family="Times,serif" font-size="14.00">InputLargeComponent</text>
</g>
<!-- InputLargeComponent&#45;&gt;SharedModule -->
<g id="edge7" class="edge">
<title>InputLargeComponent&#45;&gt;SharedModule</title>
<path fill="none" stroke="black" d="M606.54,-84.84C606.54,-101.53 606.54,-123.8 606.54,-123.8 606.54,-123.8 996.61,-123.8 996.61,-123.8"/>
<polygon fill="black" stroke="black" points="996.61,-127.3 1006.61,-123.8 996.61,-120.3 996.61,-127.3"/>
</g>
<!-- ModalComponent -->
<g id="node8" class="node">
<title>ModalComponent</title>
<polygon fill="#ffffb3" stroke="black" points="465.88,-84.8 348.12,-84.8 348.12,-48.8 465.88,-48.8 465.88,-84.8"/>
<text text-anchor="middle" x="407" y="-62.6" font-family="Times,serif" font-size="14.00">ModalComponent</text>
</g>
<!-- ModalComponent&#45;&gt;SharedModule -->
<g id="edge8" class="edge">
<title>ModalComponent&#45;&gt;SharedModule</title>
<path fill="none" stroke="black" d="M443.4,-85.1C443.4,-103.07 443.4,-127.8 443.4,-127.8 443.4,-127.8 996.65,-127.8 996.65,-127.8"/>
<polygon fill="black" stroke="black" points="996.65,-131.3 1006.65,-127.8 996.65,-124.3 996.65,-131.3"/>
</g>
<!-- ColorInputComponent -->
<g id="node9" class="node">
<title>ColorInputComponent</title>
<polygon fill="#ffffb3" stroke="black" points="330.27,-84.8 187.73,-84.8 187.73,-48.8 330.27,-48.8 330.27,-84.8"/>
<text text-anchor="middle" x="259" y="-62.6" font-family="Times,serif" font-size="14.00">ColorInputComponent</text>
</g>
<!-- ColorInputComponent&#45;&gt;SharedModule -->
<g id="edge9" class="edge">
<title>ColorInputComponent&#45;&gt;SharedModule</title>
<path fill="none" stroke="black" d="M292.55,-84.97C292.55,-103.89 292.55,-130.8 292.55,-130.8 292.55,-130.8 996.5,-130.8 996.5,-130.8"/>
<polygon fill="black" stroke="black" points="996.5,-134.3 1006.5,-130.8 996.5,-127.3 996.5,-134.3"/>
</g>
<!-- InputMediumDirective -->
<g id="node10" class="node">
<title>InputMediumDirective</title>
<polygon fill="#ffffb3" stroke="black" points="169.57,-84.8 24.43,-84.8 24.43,-48.8 169.57,-48.8 169.57,-84.8"/>
<text text-anchor="middle" x="97" y="-62.6" font-family="Times,serif" font-size="14.00">InputMediumDirective</text>
</g>
<!-- InputMediumDirective&#45;&gt;SharedModule -->
<g id="edge10" class="edge">
<title>InputMediumDirective&#45;&gt;SharedModule</title>
<path fill="none" stroke="black" d="M97,-85.11C97,-104.95 97,-133.8 97,-133.8 97,-133.8 996.46,-133.8 996.46,-133.8"/>
<polygon fill="black" stroke="black" points="996.46,-137.3 1006.46,-133.8 996.46,-130.3 996.46,-137.3"/>
</g>
<!-- ButtonComponent  -->
<g id="node14" class="node">
<title>ButtonComponent </title>
<polygon fill="#fb8072" stroke="black" points="1831.45,-214.8 1708.55,-214.8 1708.55,-178.8 1831.45,-178.8 1831.45,-214.8"/>
<text text-anchor="middle" x="1770" y="-192.6" font-family="Times,serif" font-size="14.00">ButtonComponent </text>
</g>
<!-- SharedModule&#45;&gt;ButtonComponent  -->
<g id="edge13" class="edge">
<title>SharedModule&#45;&gt;ButtonComponent </title>
<path fill="none" stroke="black" stroke-dasharray="5,2" d="M1105.27,-136.8C1262.96,-136.8 1744.96,-136.8 1744.96,-136.8 1744.96,-136.8 1744.96,-168.8 1744.96,-168.8"/>
<polygon fill="black" stroke="black" points="1741.46,-168.8 1744.96,-178.8 1748.46,-168.8 1741.46,-168.8"/>
</g>
<!-- ButtonSmallComponent  -->
<g id="node15" class="node">
<title>ButtonSmallComponent </title>
<polygon fill="#fb8072" stroke="black" points="1690.62,-214.8 1535.38,-214.8 1535.38,-178.8 1690.62,-178.8 1690.62,-214.8"/>
<text text-anchor="middle" x="1613" y="-192.6" font-family="Times,serif" font-size="14.00">ButtonSmallComponent </text>
</g>
<!-- SharedModule&#45;&gt;ButtonSmallComponent  -->
<g id="edge14" class="edge">
<title>SharedModule&#45;&gt;ButtonSmallComponent </title>
<path fill="none" stroke="black" stroke-dasharray="5,2" d="M1105.37,-140.8C1230.81,-140.8 1551.96,-140.8 1551.96,-140.8 1551.96,-140.8 1551.96,-168.77 1551.96,-168.77"/>
<polygon fill="black" stroke="black" points="1548.46,-168.77 1551.96,-178.77 1555.46,-168.77 1548.46,-168.77"/>
</g>
<!-- SliderComponent  -->
<g id="node16" class="node">
<title>SliderComponent </title>
<polygon fill="#fb8072" stroke="black" points="1517.27,-214.8 1398.73,-214.8 1398.73,-178.8 1517.27,-178.8 1517.27,-214.8"/>
<text text-anchor="middle" x="1458" y="-192.6" font-family="Times,serif" font-size="14.00">SliderComponent </text>
</g>
<!-- SharedModule&#45;&gt;SliderComponent  -->
<g id="edge15" class="edge">
<title>SharedModule&#45;&gt;SliderComponent </title>
<path fill="none" stroke="black" stroke-dasharray="5,2" d="M1105.54,-143.8C1204.01,-143.8 1414.96,-143.8 1414.96,-143.8 1414.96,-143.8 1414.96,-168.56 1414.96,-168.56"/>
<polygon fill="black" stroke="black" points="1411.46,-168.56 1414.96,-178.56 1418.46,-168.56 1411.46,-168.56"/>
</g>
<!-- DropDownComponent  -->
<g id="node17" class="node">
<title>DropDownComponent </title>
<polygon fill="#fb8072" stroke="black" points="1380.81,-214.8 1233.19,-214.8 1233.19,-178.8 1380.81,-178.8 1380.81,-214.8"/>
<text text-anchor="middle" x="1307" y="-192.6" font-family="Times,serif" font-size="14.00">DropDownComponent </text>
</g>
<!-- SharedModule&#45;&gt;DropDownComponent  -->
<g id="edge16" class="edge">
<title>SharedModule&#45;&gt;DropDownComponent </title>
<path fill="none" stroke="black" stroke-dasharray="5,2" d="M1105.25,-146.8C1161.91,-146.8 1247.24,-146.8 1247.24,-146.8 1247.24,-146.8 1247.24,-168.75 1247.24,-168.75"/>
<polygon fill="black" stroke="black" points="1243.74,-168.75 1247.24,-178.75 1250.74,-168.75 1243.74,-168.75"/>
</g>
<!-- InputSmallComponent  -->
<g id="node18" class="node">
<title>InputSmallComponent </title>
<polygon fill="#fb8072" stroke="black" points="1215.55,-214.8 1068.45,-214.8 1068.45,-178.8 1215.55,-178.8 1215.55,-214.8"/>
<text text-anchor="middle" x="1142" y="-192.6" font-family="Times,serif" font-size="14.00">InputSmallComponent </text>
</g>
<!-- SharedModule&#45;&gt;InputSmallComponent  -->
<g id="edge17" class="edge">
<title>SharedModule&#45;&gt;InputSmallComponent </title>
<path fill="none" stroke="black" stroke-dasharray="5,2" d="M1086.84,-149.91C1086.84,-149.91 1086.84,-168.79 1086.84,-168.79"/>
<polygon fill="black" stroke="black" points="1083.34,-168.79 1086.84,-178.79 1090.34,-168.79 1083.34,-168.79"/>
</g>
<!-- InputMediumComponent  -->
<g id="node19" class="node">
<title>InputMediumComponent </title>
<polygon fill="#fb8072" stroke="black" points="1050.82,-214.8 889.18,-214.8 889.18,-178.8 1050.82,-178.8 1050.82,-214.8"/>
<text text-anchor="middle" x="970" y="-192.6" font-family="Times,serif" font-size="14.00">InputMediumComponent </text>
</g>
<!-- SharedModule&#45;&gt;InputMediumComponent  -->
<g id="edge18" class="edge">
<title>SharedModule&#45;&gt;InputMediumComponent </title>
<path fill="none" stroke="black" stroke-dasharray="5,2" d="M1028.85,-149.91C1028.85,-149.91 1028.85,-168.79 1028.85,-168.79"/>
<polygon fill="black" stroke="black" points="1025.35,-168.79 1028.85,-178.79 1032.35,-168.79 1025.35,-168.79"/>
</g>
<!-- InputLargeComponent  -->
<g id="node20" class="node">
<title>InputLargeComponent </title>
<polygon fill="#fb8072" stroke="black" points="871.53,-214.8 724.47,-214.8 724.47,-178.8 871.53,-178.8 871.53,-214.8"/>
<text text-anchor="middle" x="798" y="-192.6" font-family="Times,serif" font-size="14.00">InputLargeComponent </text>
</g>
<!-- SharedModule&#45;&gt;InputLargeComponent  -->
<g id="edge19" class="edge">
<title>SharedModule&#45;&gt;InputLargeComponent </title>
<path fill="none" stroke="black" stroke-dasharray="5,2" d="M1006.7,-146.8C944.88,-146.8 846.87,-146.8 846.87,-146.8 846.87,-146.8 846.87,-168.75 846.87,-168.75"/>
<polygon fill="black" stroke="black" points="843.37,-168.75 846.87,-178.75 850.37,-168.75 843.37,-168.75"/>
</g>
<!-- ModalComponent  -->
<g id="node21" class="node">
<title>ModalComponent </title>
<polygon fill="#fb8072" stroke="black" points="706.88,-214.8 585.12,-214.8 585.12,-178.8 706.88,-178.8 706.88,-214.8"/>
<text text-anchor="middle" x="646" y="-192.6" font-family="Times,serif" font-size="14.00">ModalComponent </text>
</g>
<!-- SharedModule&#45;&gt;ModalComponent  -->
<g id="edge20" class="edge">
<title>SharedModule&#45;&gt;ModalComponent </title>
<path fill="none" stroke="black" stroke-dasharray="5,2" d="M1006.75,-143.8C904,-143.8 676.26,-143.8 676.26,-143.8 676.26,-143.8 676.26,-168.56 676.26,-168.56"/>
<polygon fill="black" stroke="black" points="672.76,-168.56 676.26,-178.56 679.76,-168.56 672.76,-168.56"/>
</g>
<!-- ColorInputComponent  -->
<g id="node22" class="node">
<title>ColorInputComponent </title>
<polygon fill="#fb8072" stroke="black" points="567.27,-214.8 420.73,-214.8 420.73,-178.8 567.27,-178.8 567.27,-214.8"/>
<text text-anchor="middle" x="494" y="-192.6" font-family="Times,serif" font-size="14.00">ColorInputComponent </text>
</g>
<!-- SharedModule&#45;&gt;ColorInputComponent  -->
<g id="edge21" class="edge">
<title>SharedModule&#45;&gt;ColorInputComponent </title>
<path fill="none" stroke="black" stroke-dasharray="5,2" d="M1006.59,-140.8C874.94,-140.8 525.69,-140.8 525.69,-140.8 525.69,-140.8 525.69,-168.77 525.69,-168.77"/>
<polygon fill="black" stroke="black" points="522.19,-168.77 525.69,-178.77 529.19,-168.77 522.19,-168.77"/>
</g>
<!-- InputMediumDirective  -->
<g id="node23" class="node">
<title>InputMediumDirective </title>
<polygon fill="#fb8072" stroke="black" points="403.08,-214.8 254.92,-214.8 254.92,-178.8 403.08,-178.8 403.08,-214.8"/>
<text text-anchor="middle" x="329" y="-192.6" font-family="Times,serif" font-size="14.00">InputMediumDirective </text>
</g>
<!-- SharedModule&#45;&gt;InputMediumDirective  -->
<g id="edge22" class="edge">
<title>SharedModule&#45;&gt;InputMediumDirective </title>
<path fill="none" stroke="black" stroke-dasharray="5,2" d="M1006.52,-136.8C849.97,-136.8 375.67,-136.8 375.67,-136.8 375.67,-136.8 375.67,-168.8 375.67,-168.8"/>
<polygon fill="black" stroke="black" points="372.17,-168.8 375.67,-178.8 379.17,-168.8 372.17,-168.8"/>
</g>
<!-- CommonModule -->
<g id="node12" class="node">
<title>CommonModule</title>
<polygon fill="#8dd3c7" stroke="black" points="1817.67,-84.8 1814.67,-88.8 1793.67,-88.8 1790.67,-84.8 1706.33,-84.8 1706.33,-48.8 1817.67,-48.8 1817.67,-84.8"/>
<text text-anchor="middle" x="1762" y="-62.6" font-family="Times,serif" font-size="14.00">CommonModule</text>
</g>
<!-- CommonModule&#45;&gt;SharedModule -->
<g id="edge11" class="edge">
<title>CommonModule&#45;&gt;SharedModule</title>
<path fill="none" stroke="black" d="M1781.4,-84.97C1781.4,-103.89 1781.4,-130.8 1781.4,-130.8 1781.4,-130.8 1115.29,-130.8 1115.29,-130.8"/>
<polygon fill="black" stroke="black" points="1115.29,-127.3 1105.29,-130.8 1115.29,-134.3 1115.29,-127.3"/>
</g>
<!-- FormsModule -->
<g id="node13" class="node">
<title>FormsModule</title>
<polygon fill="#8dd3c7" stroke="black" points="1688.83,-84.8 1685.83,-88.8 1664.83,-88.8 1661.83,-84.8 1593.17,-84.8 1593.17,-48.8 1688.83,-48.8 1688.83,-84.8"/>
<text text-anchor="middle" x="1641" y="-62.6" font-family="Times,serif" font-size="14.00">FormsModule</text>
</g>
<!-- FormsModule&#45;&gt;SharedModule -->
<g id="edge12" class="edge">
<title>FormsModule&#45;&gt;SharedModule</title>
<path fill="none" stroke="black" d="M1641,-85.1C1641,-103.07 1641,-127.8 1641,-127.8 1641,-127.8 1115.37,-127.8 1115.37,-127.8"/>
<polygon fill="black" stroke="black" points="1115.37,-124.3 1105.37,-127.8 1115.37,-131.3 1115.37,-124.3"/>
</g>
<!-- ModalService -->
<g id="node24" class="node">
<title>ModalService</title>
<ellipse fill="#fdb462" stroke="black" cx="1907" cy="-66.8" rx="65.41" ry="18"/>
<text text-anchor="middle" x="1907" y="-62.6" font-family="Times,serif" font-size="14.00">ModalService</text>
</g>
<!-- ModalService&#45;&gt;SharedModule -->
<g id="edge23" class="edge">
<title>ModalService&#45;&gt;SharedModule</title>
<path fill="none" stroke="black" d="M1907,-85.11C1907,-104.95 1907,-133.8 1907,-133.8 1907,-133.8 1115.43,-133.8 1115.43,-133.8"/>
<polygon fill="black" stroke="black" points="1115.43,-130.3 1105.43,-133.8 1115.43,-137.3 1115.43,-130.3"/>
</g>
</g>
</svg>
