<?xml version="1.0" encoding="UTF-8" standalone="no"?>
<!DOCTYPE svg PUBLIC "-//W3C//DTD SVG 1.1//EN"
 "http://www.w3.org/Graphics/SVG/1.1/DTD/svg11.dtd">
<!-- Generated by graphviz version 2.47.3 (20210619.1520)
 -->
<!-- Title: dependencies Pages: 1 -->
<svg width="990pt" height="247pt"
 viewBox="0.00 0.00 990.00 246.80" xmlns="http://www.w3.org/2000/svg" xmlns:xlink="http://www.w3.org/1999/xlink">
<g id="graph0" class="graph" transform="scale(1 1) rotate(0) translate(4 242.8)">
<title>dependencies</title>
<polygon fill="white" stroke="transparent" points="-4,4 -4,-242.8 986,-242.8 986,4 -4,4"/>
<text text-anchor="middle" x="491" y="-8.2" font-family="sans-serif" font-size="14.00">dependencies</text>
<g id="clust1" class="cluster">
<title>cluster_DataPanelModule</title>
<polygon fill="none" stroke="black" stroke-dasharray="1,5" points="8,-32.8 8,-230.8 974,-230.8 974,-32.8 8,-32.8"/>
</g>
<g id="clust2" class="cluster">
<title>cluster_DataPanelModule_declarations</title>
<polygon fill="none" stroke="black" points="268,-40.8 268,-92.8 966,-92.8 966,-40.8 268,-40.8"/>
</g>
<g id="clust8" class="cluster">
<title>cluster_DataPanelModule_exports</title>
<polygon fill="none" stroke="black" points="370,-170.8 370,-222.8 528,-222.8 528,-170.8 370,-170.8"/>
</g>
<g id="clust7" class="cluster">
<title>cluster_DataPanelModule_imports</title>
<polygon fill="none" stroke="black" points="16,-40.8 16,-92.8 260,-92.8 260,-40.8 16,-40.8"/>
</g>
<!-- NetworkPanelComponent -->
<g id="node1" class="node">
<title>NetworkPanelComponent</title>
<polygon fill="#ffffb3" stroke="black" points="957.91,-84.8 796.09,-84.8 796.09,-48.8 957.91,-48.8 957.91,-84.8"/>
<text text-anchor="middle" x="877" y="-62.6" font-family="Times,serif" font-size="14.00">NetworkPanelComponent</text>
</g>
<!-- DataPanelModule -->
<g id="node5" class="node">
<title>DataPanelModule</title>
<polygon fill="#8dd3c7" stroke="black" points="507.58,-149.8 504.58,-153.8 483.58,-153.8 480.58,-149.8 390.42,-149.8 390.42,-113.8 507.58,-113.8 507.58,-149.8"/>
<text text-anchor="middle" x="449" y="-127.6" font-family="Times,serif" font-size="14.00">DataPanelModule</text>
</g>
<!-- NetworkPanelComponent&#45;&gt;DataPanelModule -->
<g id="edge1" class="edge">
<title>NetworkPanelComponent&#45;&gt;DataPanelModule</title>
<path fill="none" stroke="black" d="M877,-85.08C877,-106.12 877,-137.8 877,-137.8 877,-137.8 517.61,-137.8 517.61,-137.8"/>
<polygon fill="black" stroke="black" points="517.61,-134.3 507.61,-137.8 517.61,-141.3 517.61,-134.3"/>
</g>
<!-- DataPanelComponent -->
<g id="node2" class="node">
<title>DataPanelComponent</title>
<polygon fill="#ffffb3" stroke="black" points="778.36,-84.8 639.64,-84.8 639.64,-48.8 778.36,-48.8 778.36,-84.8"/>
<text text-anchor="middle" x="709" y="-62.6" font-family="Times,serif" font-size="14.00">DataPanelComponent</text>
</g>
<!-- DataPanelComponent&#45;&gt;DataPanelModule -->
<g id="edge2" class="edge">
<title>DataPanelComponent&#45;&gt;DataPanelModule</title>
<path fill="none" stroke="black" d="M709,-84.82C709,-102.17 709,-125.8 709,-125.8 709,-125.8 517.67,-125.8 517.67,-125.8"/>
<polygon fill="black" stroke="black" points="517.67,-122.3 507.67,-125.8 517.67,-129.3 517.67,-122.3"/>
</g>
<!-- StructurePanelComponent -->
<g id="node3" class="node">
<title>StructurePanelComponent</title>
<polygon fill="#ffffb3" stroke="black" points="621.75,-84.8 458.25,-84.8 458.25,-48.8 621.75,-48.8 621.75,-84.8"/>
<text text-anchor="middle" x="540" y="-62.6" font-family="Times,serif" font-size="14.00">StructurePanelComponent</text>
</g>
<!-- StructurePanelComponent&#45;&gt;DataPanelModule -->
<g id="edge3" class="edge">
<title>StructurePanelComponent&#45;&gt;DataPanelModule</title>
<path fill="none" stroke="black" d="M482.83,-84.91C482.83,-84.91 482.83,-103.79 482.83,-103.79"/>
<polygon fill="black" stroke="black" points="479.33,-103.79 482.83,-113.79 486.33,-103.79 479.33,-103.79"/>
</g>
<!-- InspectorPanelComponent -->
<g id="node4" class="node">
<title>InspectorPanelComponent</title>
<polygon fill="#ffffb3" stroke="black" points="440.02,-84.8 275.98,-84.8 275.98,-48.8 440.02,-48.8 440.02,-84.8"/>
<text text-anchor="middle" x="358" y="-62.6" font-family="Times,serif" font-size="14.00">InspectorPanelComponent</text>
</g>
<!-- InspectorPanelComponent&#45;&gt;DataPanelModule -->
<g id="edge4" class="edge">
<title>InspectorPanelComponent&#45;&gt;DataPanelModule</title>
<path fill="none" stroke="black" d="M415.36,-84.91C415.36,-84.91 415.36,-103.79 415.36,-103.79"/>
<polygon fill="black" stroke="black" points="411.86,-103.79 415.36,-113.79 418.86,-103.79 411.86,-103.79"/>
</g>
<!-- DataPanelComponent  -->
<g id="node8" class="node">
<title>DataPanelComponent </title>
<polygon fill="#fb8072" stroke="black" points="520.36,-214.8 377.64,-214.8 377.64,-178.8 520.36,-178.8 520.36,-214.8"/>
<text text-anchor="middle" x="449" y="-192.6" font-family="Times,serif" font-size="14.00">DataPanelComponent </text>
</g>
<!-- DataPanelModule&#45;&gt;DataPanelComponent  -->
<g id="edge7" class="edge">
<title>DataPanelModule&#45;&gt;DataPanelComponent </title>
<path fill="none" stroke="black" stroke-dasharray="5,2" d="M449,-149.91C449,-149.91 449,-168.79 449,-168.79"/>
<polygon fill="black" stroke="black" points="445.5,-168.79 449,-178.79 452.5,-168.79 445.5,-168.79"/>
</g>
<!-- CommonModule -->
<g id="node6" class="node">
<title>CommonModule</title>
<polygon fill="#8dd3c7" stroke="black" points="251.67,-84.8 248.67,-88.8 227.67,-88.8 224.67,-84.8 140.33,-84.8 140.33,-48.8 251.67,-48.8 251.67,-84.8"/>
<text text-anchor="middle" x="196" y="-62.6" font-family="Times,serif" font-size="14.00">CommonModule</text>
</g>
<!-- CommonModule&#45;&gt;DataPanelModule -->
<g id="edge5" class="edge">
<title>CommonModule&#45;&gt;DataPanelModule</title>
<path fill="none" stroke="black" d="M196,-84.82C196,-102.17 196,-125.8 196,-125.8 196,-125.8 380.32,-125.8 380.32,-125.8"/>
<polygon fill="black" stroke="black" points="380.32,-129.3 390.32,-125.8 380.32,-122.3 380.32,-129.3"/>
</g>
<!-- SharedModule -->
<g id="node7" class="node">
<title>SharedModule</title>
<polygon fill="#8dd3c7" stroke="black" points="122.42,-84.8 119.42,-88.8 98.42,-88.8 95.42,-84.8 23.58,-84.8 23.58,-48.8 122.42,-48.8 122.42,-84.8"/>
<text text-anchor="middle" x="73" y="-62.6" font-family="Times,serif" font-size="14.00">SharedModule</text>
</g>
<!-- SharedModule&#45;&gt;DataPanelModule -->
<g id="edge6" class="edge">
<title>SharedModule&#45;&gt;DataPanelModule</title>
<path fill="none" stroke="black" d="M73,-85.08C73,-106.12 73,-137.8 73,-137.8 73,-137.8 380.25,-137.8 380.25,-137.8"/>
<polygon fill="black" stroke="black" points="380.25,-141.3 390.25,-137.8 380.25,-134.3 380.25,-141.3"/>
</g>
</g>
</svg>
