<?xml version="1.0" encoding="UTF-8" standalone="no"?>
<!DOCTYPE svg PUBLIC "-//W3C//DTD SVG 1.1//EN"
 "http://www.w3.org/Graphics/SVG/1.1/DTD/svg11.dtd">
<!-- Generated by graphviz version 2.47.3 (20210619.1520)
 -->
<!-- Title: dependencies Pages: 1 -->
<svg width="1537pt" height="247pt"
 viewBox="0.00 0.00 1537.00 246.80" xmlns="http://www.w3.org/2000/svg" xmlns:xlink="http://www.w3.org/1999/xlink">
<g id="graph0" class="graph" transform="scale(1 1) rotate(0) translate(4 242.8)">
<title>dependencies</title>
<polygon fill="white" stroke="transparent" points="-4,4 -4,-242.8 1533,-242.8 1533,4 -4,4"/>
<text text-anchor="middle" x="764.5" y="-8.2" font-family="sans-serif" font-size="14.00">dependencies</text>
<g id="clust1" class="cluster">
<title>cluster_AppModule</title>
<polygon fill="none" stroke="black" stroke-dasharray="1,5" points="8,-32.8 8,-230.8 1521,-230.8 1521,-32.8 8,-32.8"/>
</g>
<g id="clust2" class="cluster">
<title>cluster_AppModule_declarations</title>
<polygon fill="none" stroke="black" points="1259,-40.8 1259,-92.8 1513,-92.8 1513,-40.8 1259,-40.8"/>
</g>
<g id="clust5" class="cluster">
<title>cluster_AppModule_imports</title>
<polygon fill="none" stroke="black" points="16,-40.8 16,-92.8 1251,-92.8 1251,-40.8 16,-40.8"/>
</g>
<g id="clust7" class="cluster">
<title>cluster_AppModule_bootstrap</title>
<polygon fill="none" stroke="black" points="719,-170.8 719,-222.8 843,-222.8 843,-170.8 719,-170.8"/>
</g>
<!-- AppComponent -->
<g id="node1" class="node">
<title>AppComponent</title>
<polygon fill="#ffffb3" stroke="black" points="1504.94,-84.8 1399.06,-84.8 1399.06,-48.8 1504.94,-48.8 1504.94,-84.8"/>
<text text-anchor="middle" x="1452" y="-62.6" font-family="Times,serif" font-size="14.00">AppComponent</text>
</g>
<!-- AppModule -->
<g id="node3" class="node">
<title>AppModule</title>
<polygon fill="#8dd3c7" stroke="black" points="822.66,-149.8 819.66,-153.8 798.66,-153.8 795.66,-149.8 739.34,-149.8 739.34,-113.8 822.66,-113.8 822.66,-149.8"/>
<text text-anchor="middle" x="781" y="-127.6" font-family="Times,serif" font-size="14.00">AppModule</text>
</g>
<!-- AppComponent&#45;&gt;AppModule -->
<g id="edge1" class="edge">
<title>AppComponent&#45;&gt;AppModule</title>
<path fill="none" stroke="black" d="M1452,-85.05C1452,-107.82 1452,-143.8 1452,-143.8 1452,-143.8 832.72,-143.8 832.72,-143.8"/>
<polygon fill="black" stroke="black" points="832.72,-140.3 822.72,-143.8 832.72,-147.3 832.72,-140.3"/>
</g>
<!-- LoginComponent -->
<g id="node2" class="node">
<title>LoginComponent</title>
<polygon fill="#ffffb3" stroke="black" points="1381.28,-84.8 1266.72,-84.8 1266.72,-48.8 1381.28,-48.8 1381.28,-84.8"/>
<text text-anchor="middle" x="1324" y="-62.6" font-family="Times,serif" font-size="14.00">LoginComponent</text>
</g>
<!-- LoginComponent&#45;&gt;AppModule -->
<g id="edge2" class="edge">
<title>LoginComponent&#45;&gt;AppModule</title>
<path fill="none" stroke="black" d="M1324,-85.08C1324,-106.12 1324,-137.8 1324,-137.8 1324,-137.8 832.71,-137.8 832.71,-137.8"/>
<polygon fill="black" stroke="black" points="832.71,-134.3 822.71,-137.8 832.71,-141.3 832.71,-134.3"/>
</g>
<!-- AppComponent  -->
<g id="node13" class="node">
<title>AppComponent </title>
<polygon fill="#80b1d3" stroke="black" points="835.44,-214.8 726.56,-214.8 726.56,-178.8 835.44,-178.8 835.44,-214.8"/>
<text text-anchor="middle" x="781" y="-192.6" font-family="Times,serif" font-size="14.00">AppComponent </text>
</g>
<!-- AppModule&#45;&gt;AppComponent  -->
<g id="edge12" class="edge">
<title>AppModule&#45;&gt;AppComponent </title>
<path fill="none" stroke="black" stroke-dasharray="1,5" d="M781,-149.91C781,-149.91 781,-168.79 781,-168.79"/>
<polygon fill="black" stroke="black" points="777.5,-168.79 781,-178.79 784.5,-168.79 777.5,-168.79"/>
</g>
<!-- BrowserModule -->
<g id="node4" class="node">
<title>BrowserModule</title>
<polygon fill="#8dd3c7" stroke="black" points="1243.47,-84.8 1240.47,-88.8 1219.47,-88.8 1216.47,-84.8 1136.53,-84.8 1136.53,-48.8 1243.47,-48.8 1243.47,-84.8"/>
<text text-anchor="middle" x="1190" y="-62.6" font-family="Times,serif" font-size="14.00">BrowserModule</text>
</g>
<!-- BrowserModule&#45;&gt;AppModule -->
<g id="edge3" class="edge">
<title>BrowserModule&#45;&gt;AppModule</title>
<path fill="none" stroke="black" d="M1190,-84.91C1190,-104.14 1190,-131.8 1190,-131.8 1190,-131.8 832.85,-131.8 832.85,-131.8"/>
<polygon fill="black" stroke="black" points="832.85,-128.3 822.85,-131.8 832.85,-135.3 832.85,-128.3"/>
</g>
<!-- AppRoutingModule -->
<g id="node5" class="node">
<title>AppRoutingModule</title>
<polygon fill="#8dd3c7" stroke="black" points="1118.27,-84.8 1115.27,-88.8 1094.27,-88.8 1091.27,-84.8 989.73,-84.8 989.73,-48.8 1118.27,-48.8 1118.27,-84.8"/>
<text text-anchor="middle" x="1054" y="-62.6" font-family="Times,serif" font-size="14.00">AppRoutingModule</text>
</g>
<!-- AppRoutingModule&#45;&gt;AppModule -->
<g id="edge4" class="edge">
<title>AppRoutingModule&#45;&gt;AppModule</title>
<path fill="none" stroke="black" d="M1054,-84.82C1054,-102.17 1054,-125.8 1054,-125.8 1054,-125.8 832.76,-125.8 832.76,-125.8"/>
<polygon fill="black" stroke="black" points="832.76,-122.3 822.76,-125.8 832.76,-129.3 832.76,-122.3"/>
</g>
<!-- DataPanelModule -->
<g id="node6" class="node">
<title>DataPanelModule</title>
<polygon fill="#8dd3c7" stroke="black" points="971.58,-84.8 968.58,-88.8 947.58,-88.8 944.58,-84.8 854.42,-84.8 854.42,-48.8 971.58,-48.8 971.58,-84.8"/>
<text text-anchor="middle" x="913" y="-62.6" font-family="Times,serif" font-size="14.00">DataPanelModule</text>
</g>
<!-- DataPanelModule&#45;&gt;AppModule -->
<g id="edge5" class="edge">
<title>DataPanelModule&#45;&gt;AppModule</title>
<path fill="none" stroke="black" d="M913,-85.04C913,-100.37 913,-119.8 913,-119.8 913,-119.8 832.77,-119.8 832.77,-119.8"/>
<polygon fill="black" stroke="black" points="832.77,-116.3 822.77,-119.8 832.77,-123.3 832.77,-116.3"/>
</g>
<!-- MenubarModule -->
<g id="node7" class="node">
<title>MenubarModule</title>
<polygon fill="#8dd3c7" stroke="black" points="836.08,-84.8 833.08,-88.8 812.08,-88.8 809.08,-84.8 725.92,-84.8 725.92,-48.8 836.08,-48.8 836.08,-84.8"/>
<text text-anchor="middle" x="781" y="-62.6" font-family="Times,serif" font-size="14.00">MenubarModule</text>
</g>
<!-- MenubarModule&#45;&gt;AppModule -->
<g id="edge6" class="edge">
<title>MenubarModule&#45;&gt;AppModule</title>
<path fill="none" stroke="black" d="M781,-84.91C781,-84.91 781,-103.79 781,-103.79"/>
<polygon fill="black" stroke="black" points="777.5,-103.79 781,-113.79 784.5,-103.79 777.5,-103.79"/>
</g>
<!-- GraphEditorModule -->
<g id="node8" class="node">
<title>GraphEditorModule</title>
<polygon fill="#8dd3c7" stroke="black" points="707.53,-84.8 704.53,-88.8 683.53,-88.8 680.53,-84.8 578.47,-84.8 578.47,-48.8 707.53,-48.8 707.53,-84.8"/>
<text text-anchor="middle" x="643" y="-62.6" font-family="Times,serif" font-size="14.00">GraphEditorModule</text>
</g>
<!-- GraphEditorModule&#45;&gt;AppModule -->
<g id="edge7" class="edge">
<title>GraphEditorModule&#45;&gt;AppModule</title>
<path fill="none" stroke="black" d="M643,-85.04C643,-100.37 643,-119.8 643,-119.8 643,-119.8 729.22,-119.8 729.22,-119.8"/>
<polygon fill="black" stroke="black" points="729.22,-123.3 739.22,-119.8 729.22,-116.3 729.22,-123.3"/>
</g>
<!-- SimulationDiagramModule -->
<g id="node9" class="node">
<title>SimulationDiagramModule</title>
<polygon fill="#8dd3c7" stroke="black" points="559.98,-84.8 556.98,-88.8 535.98,-88.8 532.98,-84.8 390.02,-84.8 390.02,-48.8 559.98,-48.8 559.98,-84.8"/>
<text text-anchor="middle" x="475" y="-62.6" font-family="Times,serif" font-size="14.00">SimulationDiagramModule</text>
</g>
<!-- SimulationDiagramModule&#45;&gt;AppModule -->
<g id="edge8" class="edge">
<title>SimulationDiagramModule&#45;&gt;AppModule</title>
<path fill="none" stroke="black" d="M475,-84.82C475,-102.17 475,-125.8 475,-125.8 475,-125.8 729.09,-125.8 729.09,-125.8"/>
<polygon fill="black" stroke="black" points="729.09,-129.3 739.09,-125.8 729.09,-122.3 729.09,-129.3"/>
</g>
<!-- SharedModule -->
<g id="node10" class="node">
<title>SharedModule</title>
<polygon fill="#8dd3c7" stroke="black" points="372.42,-84.8 369.42,-88.8 348.42,-88.8 345.42,-84.8 273.58,-84.8 273.58,-48.8 372.42,-48.8 372.42,-84.8"/>
<text text-anchor="middle" x="323" y="-62.6" font-family="Times,serif" font-size="14.00">SharedModule</text>
</g>
<!-- SharedModule&#45;&gt;AppModule -->
<g id="edge9" class="edge">
<title>SharedModule&#45;&gt;AppModule</title>
<path fill="none" stroke="black" d="M323,-84.91C323,-104.14 323,-131.8 323,-131.8 323,-131.8 729.14,-131.8 729.14,-131.8"/>
<polygon fill="black" stroke="black" points="729.14,-135.3 739.14,-131.8 729.14,-128.3 729.14,-135.3"/>
</g>
<!-- FormsModule -->
<g id="node11" class="node">
<title>FormsModule</title>
<polygon fill="#8dd3c7" stroke="black" points="255.83,-84.8 252.83,-88.8 231.83,-88.8 228.83,-84.8 160.17,-84.8 160.17,-48.8 255.83,-48.8 255.83,-84.8"/>
<text text-anchor="middle" x="208" y="-62.6" font-family="Times,serif" font-size="14.00">FormsModule</text>
</g>
<!-- FormsModule&#45;&gt;AppModule -->
<g id="edge10" class="edge">
<title>FormsModule&#45;&gt;AppModule</title>
<path fill="none" stroke="black" d="M208,-85.08C208,-106.12 208,-137.8 208,-137.8 208,-137.8 729.33,-137.8 729.33,-137.8"/>
<polygon fill="black" stroke="black" points="729.33,-141.3 739.33,-137.8 729.33,-134.3 729.33,-141.3"/>
</g>
<!-- HttpClientModule -->
<g id="node12" class="node">
<title>HttpClientModule</title>
<polygon fill="#8dd3c7" stroke="black" points="142.16,-84.8 139.16,-88.8 118.16,-88.8 115.16,-84.8 23.84,-84.8 23.84,-48.8 142.16,-48.8 142.16,-84.8"/>
<text text-anchor="middle" x="83" y="-62.6" font-family="Times,serif" font-size="14.00">HttpClientModule</text>
</g>
<!-- HttpClientModule&#45;&gt;AppModule -->
<g id="edge11" class="edge">
<title>HttpClientModule&#45;&gt;AppModule</title>
<path fill="none" stroke="black" d="M83,-85.05C83,-107.82 83,-143.8 83,-143.8 83,-143.8 729.17,-143.8 729.17,-143.8"/>
<polygon fill="black" stroke="black" points="729.17,-147.3 739.17,-143.8 729.17,-140.3 729.17,-147.3"/>
</g>
</g>
</svg>
